<?xml version="1.0" encoding="utf-8"?>
<!-- Generator: Adobe Illustrator 16.0.0, SVG Export Plug-In . SVG Version: 6.00 Build 0)  -->
<!DOCTYPE svg PUBLIC "-//W3C//DTD SVG 1.1//EN" "http://www.w3.org/Graphics/SVG/1.1/DTD/svg11.dtd">
<svg version="1.1" xmlns="http://www.w3.org/2000/svg" xmlns:xlink="http://www.w3.org/1999/xlink" x="0px" y="0px"
	 width="1165.062px" height="572px" viewBox="0 0 1165.062 572" enable-background="new 0 0 1165.062 572" xml:space="preserve">
<g id="opt4">
</g>
<g id="opt3">
</g>
<g id="opt2">
	<g>
		<g>
			<path fill="#4B3E36" d="M54.916,396.867l-9.931,30.835h19.503L54.916,396.867L54.916,396.867z M15.318,459.467l31.899-82.927
				H62.75l31.764,82.927h-20.32l-6.426-18.575H41.952l-6.307,18.575H15.318L15.318,459.467z"/>
			<polygon fill="#4B3E36" points="107.944,459.467 107.944,376.54 164.244,376.54 164.244,393.362 127.103,393.362 
				127.103,411.225 157.706,411.225 157.706,426.751 127.103,426.751 127.103,459.467 107.944,459.467 			"/>
			<path fill="#4B3E36" d="M198.937,416.033h17.534c2.24,0,4.194-1.086,5.842-3.228c1.625-2.135,2.441-4.876,2.441-8.239
				c0-3.438-0.936-6.134-2.809-8.163c-1.865-2.045-3.887-3.049-6.059-3.049h-16.95V416.033L198.937,416.033z M179.785,459.467
				V376.54h37.374c3.895,0,7.505,0.809,10.8,2.441c3.318,1.655,6.187,3.775,8.598,6.441c2.412,2.644,4.292,5.632,5.663,8.987
				c1.363,3.349,2.037,6.719,2.037,10.156c0,2.569-0.3,5.049-0.929,7.415c-0.622,2.396-1.521,4.629-2.689,6.726
				c-1.168,2.104-2.591,4-4.262,5.67c-1.67,1.678-3.565,3.094-5.67,4.254l19.047,30.836h-21.616l-16.702-26.754h-12.5v26.754
				H179.785L179.785,459.467z"/>
			<polygon fill="#4B3E36" points="265.056,376.54 284.215,376.54 284.215,459.467 265.056,459.467 265.056,376.54 			"/>
			<path fill="#4B3E36" d="M296.461,417.299c0-4.973,0.906-9.938,2.696-14.882s4.404-9.369,7.827-13.271
				c3.423-3.872,7.61-7.056,12.561-9.452c4.958-2.412,10.576-3.61,16.875-3.61c7.399,0,13.818,1.663,19.278,5.011
				c5.453,3.348,9.49,7.707,12.141,13.085l-14.717,10.261c-0.847-2.172-1.955-3.984-3.258-5.423
				c-1.326-1.431-2.756-2.613-4.329-3.49c-1.558-0.892-3.168-1.521-4.846-1.88c-1.685-0.345-3.258-0.517-4.741-0.517
				c-3.43,0-6.381,0.749-8.868,2.209c-2.502,1.483-4.554,3.394-6.172,5.73c-1.647,2.336-2.876,4.98-3.7,7.946
				c-0.816,2.951-1.221,5.954-1.221,8.98c0,3.28,0.472,6.418,1.453,9.475c0.966,3.048,2.33,5.714,4.097,8.051
				c1.745,2.353,3.865,4.194,6.359,5.535c2.494,1.378,5.265,2.06,8.291,2.06c1.558,0,3.176-0.217,4.854-0.651
				c1.67-0.427,3.288-1.063,4.846-1.97c1.55-0.898,2.943-2.067,4.209-3.521c1.244-1.431,2.255-3.205,3.026-5.317l15.773,9.234
				c-1.244,3.034-3.049,5.782-5.415,8.194c-2.404,2.389-5.093,4.434-8.134,6.074c-3.026,1.625-6.247,2.884-9.632,3.729
				c-3.4,0.839-6.718,1.296-9.999,1.296c-5.76,0-11.033-1.229-15.826-3.7c-4.793-2.456-8.905-5.692-12.373-9.744
				c-3.475-4.044-6.179-8.643-8.119-13.781C297.449,427.822,296.461,422.595,296.461,417.299"/>
			<path fill="#4B3E36" d="M414.694,396.867l-9.932,30.835h19.511L414.694,396.867L414.694,396.867z M375.088,459.467l31.891-82.927
				h15.534l31.771,82.927h-20.312l-6.441-18.575h-25.81l-6.306,18.575H375.088L375.088,459.467z"/>
			<polygon fill="#4B3E36" points="484.529,412.057 484.529,459.467 465.385,459.467 465.385,376.54 480.327,376.54 
				518.989,425.246 518.989,376.54 538.155,376.54 538.155,459.467 522.727,459.467 484.529,412.057 			"/>
			<polygon fill="#4B3E36" points="614.191,376.667 631.935,376.667 640.248,403.158 648.779,376.667 666.402,376.667 
				652.509,415.202 660.905,437.514 681.824,376.54 702.615,376.54 669.556,459.467 653.438,459.467 640.353,426.998 
				627.156,459.467 611.15,459.467 578.105,376.54 598.777,376.54 619.793,437.514 627.98,415.202 614.191,376.667 			"/>
			<polygon fill="#4B3E36" points="713.483,376.54 732.634,376.54 732.634,459.467 713.483,459.467 713.483,376.54 			"/>
			<polygon fill="#4B3E36" points="754.354,459.467 754.354,376.54 773.514,376.54 773.514,442.652 813.696,442.652 
				813.696,459.467 754.354,459.467 			"/>
			<path fill="#4B3E36" d="M877.119,417.891c0-3.677-0.479-6.995-1.453-9.991c-0.981-2.996-2.396-5.595-4.269-7.767
				c-1.865-2.18-4.142-3.843-6.883-5.011c-2.733-1.168-5.812-1.76-9.242-1.76h-11.789v49.29h11.789c3.505,0,6.628-0.614,9.347-1.865
				c2.741-1.258,5.018-2.98,6.831-5.198c1.828-2.231,3.236-4.83,4.217-7.819C876.64,424.767,877.119,421.471,877.119,417.891
				 M824.324,459.467V376.54h30.948c6.853,0,12.853,1.101,17.998,3.258c5.146,2.194,9.444,5.146,12.897,8.891
				c3.468,3.745,6.074,8.111,7.834,13.145c1.745,5.011,2.629,10.373,2.629,16.058c0,6.299-0.981,12.014-2.921,17.114
				s-4.726,9.452-8.358,13.069c-3.603,3.625-7.984,6.441-13.077,8.411c-5.093,1.992-10.763,2.981-17.002,2.981H824.324
				L824.324,459.467z"/>
			<polygon fill="#4B3E36" points="909.258,459.467 909.258,376.54 928.409,376.54 928.409,442.652 968.584,442.652 
				968.584,459.467 909.258,459.467 			"/>
			<polygon fill="#4B3E36" points="983.886,376.54 1003.044,376.54 1003.044,459.467 983.886,459.467 983.886,376.54 			"/>
			<polygon fill="#4B3E36" points="1022.428,459.467 1022.428,376.54 1078.736,376.54 1078.736,393.362 1041.572,393.362 
				1041.572,411.225 1072.197,411.225 1072.197,426.751 1041.572,426.751 1041.572,459.467 1022.428,459.467 			"/>
			<polygon fill="#4B3E36" points="1150.21,442.652 1150.21,459.467 1091.94,459.467 1091.94,376.54 1149.162,376.54 
				1149.162,393.362 1111.092,393.362 1111.092,409.487 1143.792,409.487 1143.792,425.036 1111.092,425.036 1111.092,442.652 
				1150.21,442.652 			"/>
			<polygon fill="#4B3E36" points="254.204,555.853 254.204,487.396 298.753,487.396 298.753,491.822 259.117,491.822 
				259.117,519.04 292.783,519.04 292.783,523.257 259.117,523.257 259.117,555.853 254.204,555.853 			"/>
			<path fill="#4B3E36" d="M314.571,521.624c0,3.925,0.651,7.699,1.977,11.324c1.311,3.633,3.183,6.861,5.595,9.64
				c2.404,2.809,5.25,5.063,8.576,6.711c3.296,1.686,6.958,2.517,10.936,2.517c4.119,0,7.834-0.877,11.145-2.592
				c3.311-1.76,6.157-4.044,8.538-6.928c2.382-2.831,4.209-6.066,5.498-9.685c1.281-3.58,1.917-7.242,1.917-10.987
				c0-3.909-0.674-7.692-2.007-11.324c-1.355-3.641-3.243-6.839-5.662-9.647c-2.404-2.793-5.258-5.025-8.568-6.688
				c-3.311-1.686-6.936-2.517-10.86-2.517c-4.104,0-7.842,0.884-11.183,2.599c-3.348,1.73-6.187,4.044-8.516,6.891
				c-2.367,2.868-4.172,6.111-5.453,9.699C315.2,514.225,314.571,517.909,314.571,521.624 M341.654,556.339
				c-4.756,0-9.078-1.003-13.01-2.988c-3.917-1.984-7.303-4.599-10.134-7.797c-2.831-3.235-4.996-6.905-6.546-11.107
				c-1.543-4.172-2.314-8.456-2.314-12.822c0-4.554,0.809-8.928,2.464-13.114c1.633-4.172,3.895-7.872,6.741-11.093
				c2.861-3.205,6.254-5.767,10.186-7.646c3.91-1.902,8.157-2.854,12.718-2.854c4.749,0,9.1,1.003,13.025,3.04
				c3.917,2.022,7.265,4.659,10.074,7.947c2.786,3.272,4.958,7.003,6.501,11.137c1.543,4.165,2.322,8.352,2.322,12.583
				c0,4.636-0.824,9.04-2.472,13.212c-1.64,4.172-3.895,7.864-6.741,11.04c-2.861,3.19-6.239,5.729-10.126,7.624
				C350.447,555.396,346.238,556.339,341.654,556.339"/>
			<path fill="#4B3E36" d="M419.578,551.815c4.621,0,8.463-0.877,11.512-2.592c3.056-1.76,5.49-4.037,7.288-6.883
				c1.797-2.809,3.056-6.015,3.805-9.624c0.741-3.61,1.108-7.228,1.108-10.898v-34.423h4.913v34.423
				c0,4.569-0.494,8.929-1.49,13.107c-0.996,4.202-2.622,7.879-4.876,11.04c-2.239,3.198-5.183,5.699-8.815,7.579
				c-3.625,1.865-8.081,2.779-13.354,2.779c-5.393,0-9.939-0.959-13.594-2.929c-3.677-1.962-6.598-4.554-8.83-7.812
				c-2.217-3.243-3.79-6.921-4.733-11.032c-0.914-4.127-1.378-8.359-1.378-12.733v-34.423h4.914v34.423
				c0,3.812,0.367,7.49,1.108,11.085c0.741,3.61,2.007,6.794,3.805,9.595c1.805,2.794,4.217,5.041,7.235,6.748
				C411.219,550.946,415.009,551.815,419.578,551.815"/>
			<polygon fill="#4B3E36" points="474.912,496.639 474.912,555.853 470.006,555.853 470.006,487.396 473.758,487.396 
				521.768,547.658 521.768,487.485 526.696,487.485 526.696,555.853 522.165,555.853 474.912,496.639 			"/>
			<path fill="#4B3E36" d="M599.976,521.526c0-4.307-0.606-8.275-1.812-11.901c-1.243-3.64-3.033-6.777-5.362-9.406
				c-2.345-2.637-5.228-4.682-8.628-6.172c-3.416-1.468-7.34-2.225-11.781-2.225h-17.818v59.596h17.818
				c4.509,0,8.471-0.756,11.916-2.254c3.445-1.513,6.314-3.61,8.636-6.344c2.314-2.689,4.067-5.842,5.243-9.482
				C599.392,529.705,599.976,525.766,599.976,521.526 M549.645,555.853v-68.457h22.747c5.408,0,10.156,0.906,14.238,2.704
				c4.074,1.782,7.46,4.254,10.156,7.317c2.704,3.094,4.733,6.726,6.074,10.853c1.355,4.149,2.044,8.576,2.044,13.257
				c0,5.221-0.779,9.924-2.277,14.118c-1.513,4.225-3.692,7.819-6.486,10.83c-2.846,2.974-6.277,5.28-10.284,6.921
				c-4.029,1.647-8.501,2.457-13.466,2.457H549.645L549.645,555.853z"/>
			<path fill="#4B3E36" d="M645.102,493.388l-15.242,35.861h30.184L645.102,493.388L645.102,493.388z M613.952,555.853
				l29.135-68.457h4.044l29.113,68.457h-5.295l-9.549-22.56h-32.686l-9.564,22.56H613.952L613.952,555.853z"/>
			<polygon fill="#4B3E36" points="732.754,491.822 707.686,491.822 707.686,555.853 702.75,555.853 702.75,491.822 
				677.689,491.822 677.689,487.396 732.754,487.396 732.754,491.822 			"/>
			<polygon fill="#4B3E36" points="748.647,487.485 753.583,487.485 753.583,555.853 748.647,555.853 748.647,487.485 			"/>
			<path fill="#4B3E36" d="M777.011,521.624c0,3.925,0.659,7.699,1.977,11.324c1.318,3.633,3.168,6.861,5.595,9.64
				c2.412,2.809,5.273,5.063,8.591,6.711c3.296,1.686,6.951,2.517,10.913,2.517c4.134,0,7.849-0.877,11.145-2.592
				c3.311-1.76,6.156-4.044,8.553-6.928c2.359-2.831,4.209-6.066,5.49-9.685c1.289-3.58,1.925-7.242,1.925-10.987
				c0-3.909-0.696-7.692-2.037-11.324c-1.341-3.641-3.228-6.839-5.625-9.647c-2.419-2.793-5.28-5.025-8.591-6.688
				c-3.303-1.686-6.928-2.517-10.86-2.517c-4.089,0-7.834,0.884-11.174,2.599c-3.333,1.73-6.187,4.044-8.523,6.891
				c-2.352,2.868-4.172,6.111-5.46,9.699C777.647,514.225,777.011,517.909,777.011,521.624 M804.086,556.339
				c-4.749,0-9.078-1.003-13.002-2.988c-3.925-1.984-7.295-4.599-10.126-7.797c-2.846-3.235-5.003-6.905-6.546-11.107
				c-1.558-4.172-2.337-8.456-2.337-12.822c0-4.554,0.839-8.928,2.479-13.114c1.64-4.172,3.879-7.872,6.748-11.093
				c2.861-3.205,6.231-5.767,10.171-7.646c3.925-1.902,8.156-2.854,12.733-2.854c4.749,0,9.092,1.003,13.024,3.04
				c3.91,2.022,7.258,4.659,10.059,7.947c2.793,3.272,4.958,7.003,6.501,11.137c1.543,4.165,2.322,8.352,2.322,12.583
				c0,4.636-0.809,9.04-2.457,13.212c-1.641,4.172-3.895,7.864-6.741,11.04c-2.861,3.19-6.246,5.729-10.126,7.624
				C812.895,555.396,808.663,556.339,804.086,556.339"/>
			<polygon fill="#4B3E36" points="859.541,496.639 859.541,555.853 854.627,555.853 854.627,487.396 858.395,487.396 
				906.412,547.658 906.412,487.485 911.325,487.485 911.325,555.853 906.771,555.853 859.541,496.639 			"/>
		</g>
		<g>
			<path fill="#9B8B83" d="M521.348,326.897c-0.457,0-0.914-0.007-1.393-0.022c-6.456-0.202-10.516-1.25-13.804-3.085
				c0.367-1.071,0.637-2.225,0.727-3.58c0.479-7.355-5.348-10.966-12.261-15.385c-2.599-5.849-3.385-10.65-3.565-14.904
				c0.187-0.284,0.382-0.592,0.577-0.876c5.303-7.819,6.396-9.13,16.223-20.799c7.348-8.666,19.818-18.972,27.997-26.409
				c0.27-0.03,0.524-0.067,0.764-0.067c0.704,0,1.266,0.194,1.633,0.621l0,0c1.423,8.958,2.801,11.895,8.321,14.92
				c5.325,3.947,9.489,10.613,13.811,15.339c0.022,0.022,0.038,0.045,0.052,0.067c-0.472,0.157-0.951,0.308-1.393,0.502
				c-8.336,3.947-11.999,9.984-18.455,17.047c-1.888,2.517-7.228,10.793-7.325,21.63
				C533.152,322.352,532.396,326.897,521.348,326.897"/>
			<path fill="#9B8B83" d="M723.707,322.427c0.083-0.24,0.165-0.465,0.254-0.689c2.846-7.093,8.014-10.171,8.509-14.298
				c0.839-6.628-0.24-12.275,0.075-17.684c1.079,0.225,1.917,0.585,2.726,0.922c2.104,0.823,3.131,2.052,3.625,3.423
				c0.495,1.468,0.607,3.52,0.809,5.362c0.382,3.094,0.135,4.906-0.539,7.272c-0.674,2.359-3.94,5.535-5.041,6.681
				c-0.517,0.518-3.768,3.229-6.479,5.64C726.268,320.27,724.89,321.408,723.707,322.427"/>
			<g>
				<path fill="#9B8B83" d="M756.766,333.541c-0.434,0-0.861,0-1.273-0.015c-8.261-0.202-14.44-0.779-19.039-1.603
					c0.756-1.835,0.704-4.449,0.921-5.805c0.292-1.745,1.229-1.663,3.168-2.547c1.902-0.884,2.075-2.217,3.865-3.198
					c1.797-0.988,0.764,0.63,5.745-2.815c2.18-1.521,4.396-2.143,6.381-2.143c2.569,0,4.741,1.041,5.895,2.569
					c1.768,2.359,2.517,3.4,3.311,5.287c0.936,2.232,1.603,3.528,1.857,5.28c0.157,1.102-0.749,2.771-1.063,4.127
					C763.612,333.242,760.196,333.541,756.766,333.541"/>
				<path fill="#9B8B83" d="M672.02,328.891c0.098-0.338,0.195-0.704,0.307-1.116c0.165-0.696,0.24-1.355,0.24-1.985
					c0-5.43-5.909-8.396-9.145-15.616c-3.618-8.066-0.524-17.48-3.939-26.199c-3.408-8.71-11.767-21.158-12.306-23.569
					c-1.723-3.79-5.153-12.853-5.153-21.601c0-4.404,0.869-8.741,3.265-12.261c0.015-0.016,0.015-0.038,0.023-0.053
					c0.007-0.022,0.037-0.03,0.037-0.045c0,0,0.008,0,0.008-0.008c0.007-0.007,0.015-0.022,0.037-0.045
					c0.022-0.052,0.045-0.097,0.083-0.157l0,0c0.007-0.007,0.015-0.029,0.022-0.037c0-0.015,0.007-0.03,0.015-0.03
					c0-0.015,0.015-0.029,0.03-0.045c0-0.015,0.015-0.029,0.022-0.045c2.659-4.995-2.779-12.935,1.206-12.942l0,0
					c0.015,0,0.038,0,0.075,0c0.958,0.03,2.441,0.487,4.659,1.536c0,0,0,0,0.007,0c0.022,0.007,0.045,0.007,0.067,0.022
					c0.015,0.015,0.03,0.015,0.045,0.022c0.045,0.029,0.112,0.052,0.165,0.082l0,0c0.06,0.03,0.12,0.06,0.194,0.082
					c2.022,0.944,3.82,1.355,5.438,1.355c0,0,0,0,0.015,0l0,0l0,0c0,0,0,0,0.007,0c2.644-0.022,4.771-1.131,6.434-2.854v-0.007
					c0.007-0.008,0.03-0.022,0.045-0.038l0,0l0,0c0.599,0.15,1.183,0.3,1.752,0.435c12.246,3.168,27.825,10.104,35.756,17.639
					c0.554,0.531,0.944,0.749,1.213,0.749c1.288,0-0.21-5.086-0.285-5.97c-0.098-0.884,0.27-1.258,0.914-1.258
					c1.213,0,3.34,1.266,5.153,2.733c0.854,0.712,1.745,1.019,2.517,1.019c1.723,0,2.936-1.445,2.217-3.131
					c-1.034-2.411-5.475-8.8-17.047-15.519c-7.475-4.321-17.443-8.216-27.428-11.924c-0.015-0.39-0.052-0.771-0.104-1.116
					c0-0.015,0-0.015,0-0.022c-0.876-6.665-4.823-20.903,5.31-20.903l0,0h0.007c0.876,0,1.843,0.098,2.944,0.329l0,0
					c0.045,0.016,0.097,0.022,0.15,0.038c1.213,0.225,2.209,0.299,3.078,0.299c0.007,0,0.015,0,0.022,0l0,0l0,0h0.007
					c0.644,0,1.213-0.037,1.745-0.074l0,0c0.097-0.016,0.202-0.016,0.307-0.038c0.404-0.015,0.779-0.045,1.146-0.045h0.007h0.008
					c0.584,0,1.146,0.067,1.73,0.277c0.015,0,0.03,0,0.03,0.008l0,0c0.202,0.075,0.39,0.143,0.577,0.239
					c0.022,0.008,0.022,0.008,0.038,0.008s0.03,0.008,0.045,0.022c1.753,0.771,3.123,1.85,4.262,2.554
					c0.007,0,0.022,0.022,0.038,0.03c0,0,0.007,0,0.015,0c0.008,0,0.015,0.015,0.03,0.015c0.015,0.016,0.038,0.022,0.06,0.03
					c0.629,0.382,1.168,0.637,1.692,0.637h0.007l0,0l0,0c0,0,0,0,0.008,0c0.217,0,0.419-0.038,0.614-0.135
					c0-0.008,0.015-0.008,0.015-0.008l0,0c0.015,0,0.03-0.015,0.052-0.015c0.015-0.016,0.038-0.022,0.053-0.022
					c0.007-0.016,0.022-0.016,0.03-0.016h0.008l0,0c0.037-0.007,0.067-0.029,0.112-0.045c1.408-0.494,2.517-0.727,3.438-0.733h0.015
					l0,0c2.584,0.007,3.573,1.737,4.696,3.407l0,0c0,0.016,0.015,0.03,0.03,0.045c0.007,0.008,0.015,0.022,0.022,0.038l0,0
					c0.007,0.007,0.015,0.029,0.022,0.052c0.038,0.022,0.075,0.068,0.112,0.098c0.022,0.03,0.038,0.053,0.067,0.075
					c0.12,0.143,0.27,0.277,0.39,0.412c0.015,0.022,0.022,0.029,0.038,0.037c0,0.015,0.022,0.022,0.037,0.037l0,0
					c0.053,0.061,0.105,0.112,0.157,0.15c0.008,0.015,0.022,0.022,0.022,0.029c0.015,0.008,0.015,0.022,0.03,0.03
					c0.015,0.015,0.022,0.022,0.03,0.045c0.015,0,0.015,0.008,0.015,0.008c0.015,0.022,0.03,0.037,0.045,0.037
					c0.299,0.3,0.584,0.592,0.898,0.877c0.022,0.022,0.045,0.037,0.067,0.052c0,0.008,0,0.016,0.008,0.016l0,0
					c4.262,3.969,9.22,6.845,11.512,6.958c0.022,0.007,0.037,0.007,0.052,0.007c0.03,0,0.06,0,0.083,0l0,0l0,0l0,0
					c0.427,0,0.741-0.104,0.921-0.322c0.517-0.659,0.667-1.333,0.667-1.97c0-0.98-0.352-1.939-0.352-2.838
					c0-0.689,0.209-1.371,0.944-1.978l0,0c0.015-0.016,0.022-0.03,0.045-0.038c0-0.007,0-0.007,0-0.007c0.015,0,0.015,0,0.015,0
					c0.435-0.353,0.937-0.51,1.468-0.51h0.007c0.015,0,0.053,0,0.083,0c2.209,0.067,5.078,2.712,7.28,5.715
					c0,0.03,0.022,0.045,0.03,0.067c0.03,0.03,0.052,0.075,0.075,0.112c0.015,0.008,0.015,0.016,0.015,0.016
					c0.022,0.022,0.03,0.045,0.045,0.052c0,0,0,0.008,0,0.016c0.052,0.074,0.097,0.127,0.135,0.187l0,0
					c12.193,17.437,49.013,36.235,65.355,40.49l0,0c0.045,0,0.098,0.022,0.15,0.029c0.052,0.008,0.105,0.022,0.15,0.038
					c0.045,0.015,0.097,0.022,0.135,0.029c0.037,0.016,0.06,0.022,0.097,0.03c0.083,0.022,0.157,0.037,0.232,0.06
					c0.015,0,0.015,0,0.03,0c0.18,0.053,0.345,0.098,0.524,0.143c0.015,0,0.037,0,0.06,0.008c5.663,1.363,11.325,2.052,15.863,2.052
					c0.008,0,0.015,0,0.03,0l0,0l0,0l0,0c1.7,0,3.258-0.104,4.584-0.284c0.03,0,0.06-0.008,0.09-0.016l0,0
					c0.007-0.052,0.015-0.104,0.015-0.142c0-2.262-15.916-5.7-23.555-9.13c-17.863-7.977-28.154-18.298-32.775-22.35
					c-4.142-4.097-10.389-10.089-10.389-13.205c0-0.719,0.33-1.295,1.094-1.647c11.983,0.667,22.312,3.049,32.978,5.558
					c10.456,2.479,26.955,5.138,43.163,20.297c7.258,6.816,19.369,16.859,19.369,29.577c0,1.259-0.112,2.539-0.36,3.843
					c-0.015,0.022-0.015,0.029-0.015,0.045l0,0c-0.292,1.76,0.449,2.366,1.625,2.366c0,0,0,0,0.008,0l0,0l0,0
					c0.12,0,0.24,0,0.375-0.015c1.558-0.143,3.67-1.146,5.19-1.992l0,0c0.022-0.022,0.038-0.022,0.052-0.038
					c0.008-0.007,0.022-0.015,0.03-0.015c0.015-0.015,0.037-0.015,0.045-0.03c0.007,0,0.03-0.015,0.03-0.015
					c0.052-0.037,0.112-0.053,0.165-0.09c0,0,0,0,0.008,0c0.052-0.037,0.104-0.075,0.165-0.112c0.007,0,0.007,0,0.022-0.008
					c0-0.007,0.015-0.007,0.015-0.007c0.015-0.016,0.037-0.022,0.06-0.022c0-0.008,0-0.008,0-0.008
					c0.015-0.015,0.03-0.03,0.045-0.037c0.015,0,0.03-0.022,0.053-0.022c0.007-0.008,0.015-0.016,0.022-0.016
					c0.015-0.015,0.038-0.022,0.052-0.029c0.21-0.143,0.412-0.218,0.622-0.24c0.075-0.015,0.15-0.022,0.24-0.022
					c1.019,0,2.03,1.026,2.989,2.053l0,0c0.022,0.029,0.052,0.06,0.075,0.074c0,0.016,0.015,0.016,0.015,0.016
					c0.007,0.022,0.007,0.022,0.022,0.029c0.022,0.022,0.052,0.038,0.075,0.075c0,0,0.022,0.015,0.03,0.015
					c0.869,0.951,1.715,1.835,2.502,1.843c0,0,0.015,0,0.022,0l0,0l0,0l0,0c0.307-0.008,0.606-0.135,0.891-0.449
					c0.007-0.008,0.015-0.015,0.015-0.015l0,0c0.097-0.12,0.135-0.293,0.135-0.502c0-0.645-0.352-1.618-0.397-2.225
					c-2.884-17.354-18.447-43.126-35.606-57.858c-17.788-15.265-38.692-14.882-71.175-39.074
					c-18.649-13.901-24.746-35.554-39.201-40.228c-8.786-2.831-8.598-7.812-14.665-13.249c-4.015-3.618-11.924-9.354-21.84-10.554
					c-9.879-1.183-32.259-0.486-42.977-3.43c-10.71-2.959-23.488-11.115-34.026-11.115c-12.291,0-15.721,4.696-24.057,8.336
					c-2.202,0.951-5.385,2.195-9.25,3.281c-0.165-0.518-0.352-1.041-0.524-1.551c12.133-14.402,30.633-31.741,47.725-36.295
					c11.16-3.326,24.087-4.329,35.217-4.329c8.71,0,16.313,0.606,21.136,1.221c10.119,1.273,20.821,3.58,33.494,3.58
					c1.116,0,2.262-0.016,3.408-0.053c14.238-0.435,34.46-9.879,45.014-16.762c9.864-6.441,30.858-14.306,45.485-14.306
					c1.004,0,1.97,0.037,2.906,0.112c19.578,1.633,36.58,10.283,53.447,10.283c5.13,0,10.253-0.794,15.429-2.86
					c8.748-3.445,12.612-4.427,17.256-4.427c3.228,0,6.831,0.479,12.717,0.898c14.463,1.049,18.2,6.562,25.428,12.703
					c16.515,22.724,35.217,37.688,48.369,43.979c10.53,5.033,26.446,9.077,42.969,9.317c1.019,0.015,2.12,0.037,3.295,0.037
					c10.905,0,28.034-1.071,48.309-11.834c22.469-11.916,38.467-35.801,61.191-39.463c2.083-0.337,4.044-0.479,5.91-0.479
					c11.07,0,17.908,5.288,17.519,7.64c-0.532,3.003-10.501,4.815-3.453,9.385c3.266,2.127,2.404,6.283-1.768,6.283
					c-0.914,0-2.007-0.202-3.243-0.674c-3.835-1.46-7.7-2.584-11.654-2.584c-5.243,0-10.643,1.978-16.275,7.887
					c-16.298,13.047-27.285,27.368-44.497,39.149c-18.709,12.814-28.888,17.121-50.758,19.443
					c-17.241,1.857-27.794,3.093-29.367,7.31c-0.315,1.086,1.528,3.101,1.692,5.977c0.285,3.61-5.707,5.325,4.12,14.726
					c26.057,24.866,37.381,34.947,58.914,40.938c8,2.239,13.631,2.906,18.14,2.906c4.884,0,8.464-0.794,12.321-1.243
					c6.269-0.734,10.718-3.221,12.635-3.221c0.225,0,0.419,0.037,0.569,0.098c1.483,0.719-5.625,8.336-14.351,11.429
					c-5.041,1.768-9.722,3.063-16.582,3.063c-5.078,0-11.354-0.704-19.833-2.427c-19.324-3.909-42.459-19.017-55.192-28.633
					c-12.755-9.625-21.548-17.953-27.21-22.38c-4.029-3.183-7.789-5.444-10.965-5.444c-0.929,0-1.812,0.187-2.629,0.599
					c-4.562,2.314,3.558,10.793-0.427,10.913c-0.12,0-0.225,0.007-0.33,0.007c-5.49,0-9.894-4.313-12.68-8.187
					c-1.221-1.7-4.891-2.111-9.52-2.111c-2.292,0-4.838,0.097-7.43,0.194c-2.599,0.12-5.243,0.217-7.752,0.217
					c-4.591,0-8.726-0.352-11.242-1.692c-3.625-1.939-6.269-3.146-8.014-3.146c-3.236,0-3.43,4.135-1.139,15.549
					c1.985,9.954-3.415,15.234-9.864,15.234c-1.161,0-2.359-0.18-3.558-0.532c-3.835-1.139-9.212-2.164-14.223-2.164
					c-5.161,0-9.954,1.086-12.335,4.246c-3.603,4.823-2.352,19.234-0.517,24.739c1.843,5.505,1.513,9.265,11.182,19.54
					c9.677,10.262,16.425,18.732,28.836,24.395c8.688,3.962,12.643,24.35,19.518,30.288c6.853,5.947,11.437,5.678,14.456,10.905
					c1.887,3.288-0.787,9.438-4.464,12.936c-6.457,6.074-9.587,7.534-12.695,8.935c-3.063,1.4-9.632,4.172-21.024,4.172
					c-0.292,0-0.577,0-0.869,0c-13.744-0.135-11.894-4.576-12.575-15.796c-0.427-6.875-9.385-15.549-11.834-18.709
					c-2.839-3.692-16.335-11.475-21.383-13.205c-16.687-6.156-17.376-21.054-33.457-21.054c-0.172,0-0.337,0-0.517,0.008
					c-1.805,0.555-4.771,2.823-4.561,7.715c-0.876,4.516-6.831,7.212-10.89,17.017l-0.195,0.524
					c-2.629,1.468-5.033,3.033-6.928,3.917c-0.689,0.329-1.453,0.464-2.247,0.464c-2.277,0-4.996-1.078-8.074-2.149
					c-3.063-1.071-6.501-2.142-10.201-2.142c-1.67,0-3.4,0.225-5.183,0.756c-6.082,2.008-13.444,5.513-16.904,12.905
					c-1.004,2.172-2.007,3.527-3.108,4.366c-1.468,1.131-2.749,1.498-4.756,2.217c-0.217,0.075-0.419,0.12-0.637,0.188
					c1.573-3.333,4.231-6.014,6.216-11.616c3.581-11.871,4-21.159,6.778-31.816c2.764-10.636,8.643-19.766,1.88-19.766
					c-22.814,0.502-34.183,13.908-44.871,13.908c-0.083,0-0.18,0-0.27-0.015c-0.876-0.016-1.7-0.016-2.479-0.016
					c-8.741,0-11.415,1.161-13.894,3.057c-3.977,3.235-4.816,7.706-4.928,11.669c-0.097,3.954-4.381,14.89-6.749,22.191
					c-2.337,7.258-1.962,14.771-0.262,22.896c1.708,8.119,3.445,11.879,7.977,15.953c4.539,4.082,6.231,6.254,6.052,11.399
					C689.194,326.448,681.382,328.373,672.02,328.891"/>
			</g>
		</g>
		<path fill="#696969" d="M560.43,272.717c-0.015-0.022-0.03-0.045-0.052-0.067c-4.322-4.726-8.486-11.392-13.811-15.339
			c-5.52-3.025-6.898-5.962-8.321-14.92l0,0l0,0c1.423,8.958,2.801,11.895,8.321,14.92c5.325,3.947,9.489,10.613,13.811,15.339
			L560.43,272.717L560.43,272.717"/>
		<path fill="#696969" d="M672.012,328.891c0.097-0.338,0.195-0.704,0.314-1.116c0.165-0.696,0.24-1.355,0.24-1.985
			c0,0.63-0.075,1.289-0.24,1.985c-0.112,0.412-0.209,0.778-0.307,1.116C672.02,328.891,672.02,328.891,672.012,328.891
			 M642.023,238.804c0-4.404,0.869-8.741,3.265-12.261c0.015-0.016,0.015-0.038,0.023-0.053c-0.008,0.015-0.008,0.037-0.023,0.053
			C642.892,230.062,642.023,234.399,642.023,238.804 M645.349,226.445c0,0,0.008,0,0.008-0.008
			C645.356,226.445,645.349,226.445,645.349,226.445 M645.394,226.393c0.022-0.052,0.045-0.097,0.083-0.157
			C645.438,226.296,645.416,226.341,645.394,226.393 M645.476,226.235c0.007-0.007,0.015-0.029,0.022-0.037
			C645.491,226.206,645.483,226.229,645.476,226.235 M645.514,226.168c0-0.015,0.015-0.029,0.03-0.045
			C645.528,226.139,645.514,226.153,645.514,226.168 M645.566,226.078c2.659-4.995-2.779-12.942,1.206-12.942
			C642.787,213.144,648.225,221.083,645.566,226.078 M657.437,216.236c-0.015,0-0.015,0-0.015,0S657.422,216.236,657.437,216.236
			L657.437,216.236 M657.444,216.236c2.644-0.022,4.771-1.131,6.434-2.854C662.216,215.105,660.088,216.214,657.444,216.236
			 M651.984,214.881c-0.075-0.022-0.135-0.052-0.194-0.082l0,0l0,0C651.85,214.829,651.91,214.858,651.984,214.881 M651.625,214.717
			c-0.015-0.008-0.03-0.008-0.045-0.022C651.595,214.709,651.61,214.709,651.625,214.717 M651.513,214.672c-0.007,0-0.007,0-0.007,0
			S651.505,214.672,651.513,214.672 M663.878,213.376c0.007-0.008,0.03-0.022,0.045-0.038l0,0
			C663.908,213.354,663.886,213.368,663.878,213.376 M646.847,213.136c-0.038,0-0.06,0-0.075,0l0,0
			C646.787,213.136,646.809,213.136,646.847,213.136"/>
		<g>
			<path fill="#72635A" d="M427.869,267.826c-2.734-9.512-10.269-18.821-9.594-22.934c0.344-2.097,1.273-3.258,2.629-3.258
				c0.667,0,1.438,0.277,2.284,0.891c1.895,1.356,8.164,10.344,15.182,20.694c-0.682-0.404-1.438-0.644-2.277-0.644
				c-1.236,0-2.629,0.524-4.157,1.79C430.318,265.707,429.359,266.658,427.869,267.826"/>
			<path fill="#72635A" d="M368.325,326.434c-11.437-0.239-26.454-11.1-29.517-14.351c-4.352-4.591-2.696-10.53,0.06-15.069
				c2.396-3.932,5.797-8.53,8.538-11.377c2.576-2.696,11.796-11.549,11.796-11.549s6.418-6.621,12.335-13.055
				c1.933-2.127,3.565-3.798,4.988-5.4c4.973,7.175,10.321,15.729,17.721,23.203c1.101,2.037-3.288,7.438-8.538,12.471
				c-0.225,0.21-0.45,0.412-0.659,0.622c-1.992,1.872-4.075,3.67-6.022,5.197c-4.329,3.243-7.01,10.254-0.524,13.961
				c-0.045,3.116,0.389,5.797,0.891,8.127C380.241,325.115,374.265,326.434,368.325,326.434"/>
			<path fill="#72635A" d="M464.539,333.279c-7.303,0-14.358-0.577-17.234-1.558c-7.722-2.637-8.104-4.202-7.752-11.819
				c0.359-7.609,4.067-15.646,3.767-26.528c-0.209-7.221-1.056-17.474-1.198-22.731c-0.015-0.779-0.165-1.626-0.389-2.449
				c4.883,7.242,9.841,14.665,13.766,20.282c3.445,6.082,2.457,14.92,6.127,20.245c-8.501,6.052-6.696,17.593,1.003,20.656
				c3.64,1.453,9.07,1.843,14.613,1.843c2.314,0,4.636-0.067,6.868-0.15C480.552,332.62,472.396,333.279,464.539,333.279"/>
			<path fill="#72635A" d="M578.66,333.541c-9.752,0-14.695-6.801-17.624-12.043c-5.7-7.7-7.482-22.432-1.903-23.653
				c5.58-1.243,14.942-2.276,11.205-11.31c-2.135-7.909-6.202-9.751-9.909-13.818l0,0l-0.052-0.067
				c-4.322-4.726-8.486-11.392-13.811-15.339c-5.52-3.025-6.898-5.962-8.321-14.92l0,0c-0.375-0.434-0.936-0.621-1.647-0.621
				c-3.476,0-10.538,4.329-15.324,4.494c-10.823,0.517-17.781,2.538-25.031,2.538c-0.906,0-1.82-0.029-2.749-0.104
				c-7.393,1.102-7.977,4.711-9.22,8.726c-1.176-2.674-2.247-5.176-2.958-7.197c-3.333-10.891-7.467-40.67-9.272-45.463
				c-3.16-11.646-6.823-9.977-4.307-23.66c1.985-7.4,14.073,0.801,15.489-9.393c1.378-10.141,0.943-11.159,2.936-16.867
				c1.708-4.838,1.573-10.605,3.685-10.605c0.39,0,0.847,0.195,1.401,0.614c3.318,2.345,6.104,2.988,8.538,2.988
				c1.468,0,2.809-0.225,4.029-0.472c1.229-0.225,2.352-0.472,3.408-0.472c1.124,0,2.149,0.263,3.146,1.086
				c4.838,4.015,5.116,4.539,7.153,6.868c3.745,4.299,5.857,5.812,6.988,5.812c1.461,0,1.258-2.532,0.779-4.854
				c-0.27-1.296-0.592-3.019-0.629-4.187c-0.075-1.985,0.674-3.4,2.157-3.4c1.288,0,3.123,1.078,5.46,3.797
				c6.187,7.168,8.71,10.246,19.414,23.233c12.95,15.751,25.532,30.558,37.149,39.471c11.137,8.599,26.536,15.032,35.636,15.032
				c1.251,0,2.375-0.12,3.363-0.382c3.939-1.019-11.242-6.321-15.923-9.003c-8.164-4.703-19.174-12.905-25.87-23.601
				c-6.381-10.171-6.809-10.718-11.152-18.507c-1.857-3.318-1.693-4.815-0.494-4.815c1.026,0,2.793,1.101,4.703,3.056
				c6.562,8.261,17.369,14.021,33.892,21.997c15.796,7.647,37.726,11.549,50.93,14.837c-0.015,0.016-0.038,0.03-0.045,0.038v0.007
				c-1.663,1.723-3.79,2.831-6.434,2.854c-0.007,0-0.007,0-0.007,0c-0.015,0-0.015,0-0.015,0c-1.618-0.022-3.415-0.411-5.438-1.355
				c-0.075-0.022-0.135-0.052-0.194-0.082l0,0c-0.053-0.03-0.12-0.053-0.165-0.082c-0.015-0.008-0.03-0.008-0.045-0.022
				c-0.022-0.016-0.045-0.016-0.067-0.022c-0.007,0-0.007,0-0.007,0c-2.217-1.049-3.7-1.506-4.659-1.536c-0.038,0-0.06,0-0.075,0
				l0,0l0,0l0,0c-3.984,0,1.453,7.947-1.206,12.942c-0.007,0.016-0.022,0.03-0.022,0.045c-0.015,0.016-0.03,0.03-0.03,0.045
				c-0.008,0-0.015,0.016-0.015,0.03c-0.007,0.008-0.015,0.03-0.022,0.037l0,0c-0.038,0.061-0.06,0.105-0.083,0.157
				c-0.022,0.022-0.03,0.038-0.037,0.045c0,0.008-0.008,0.008-0.008,0.008c0,0.015-0.03,0.022-0.037,0.045
				c-0.008,0.015-0.008,0.037-0.023,0.053c-2.396,3.52-3.265,7.856-3.265,12.261c0,8.748,3.43,17.811,5.153,21.601
				c0.539,2.411,8.898,14.859,12.306,23.569c3.416,8.719,0.322,18.133,3.939,26.199c3.236,7.221,9.145,10.187,9.145,15.616
				c0,0.63-0.075,1.289-0.24,1.985c-0.12,0.412-0.217,0.778-0.314,1.116c0.007,0,0.007,0,0.007,0
				c-0.577,1.984-1.221,2.748-3.527,3.535c-1.588,0.546-7.056,0.809-13.16,0.809c-7.677,0-16.373-0.412-19.78-1.221
				c-3.4-1.102-3.505-9.917,0-13.729c4.838-5.229-2.007-12.823-7.52-22.762c-5.857-10.591-16.717-22.604-16.717-22.604
				s-3.573-3.609-7.565-5.317c0,0-1.723-0.861-3.273-0.861c-1.67,0-3.168,0.981-2.194,5.041c1.872,7.849,5.752,23.854,4.501,31.846
				c-0.809,7.662-4.336,7.954-12.036,15.812c-1.64,7.977-3.311,13.339-10.096,14.006
				C579.978,333.512,579.304,333.541,578.66,333.541"/>
			<path fill="#72635A" d="M857.271,249.514c-0.008,0-0.022,0-0.022,0c-0.787-0.008-1.633-0.892-2.502-1.843
				c-0.007,0-0.03-0.015-0.03-0.015c-0.022-0.037-0.052-0.053-0.075-0.075c-0.015-0.007-0.015-0.007-0.022-0.029
				c0,0-0.015,0-0.015-0.016c-0.022-0.015-0.052-0.045-0.075-0.074l0,0c-0.959-1.026-1.97-2.053-2.989-2.053
				c-0.09,0-0.165,0.008-0.24,0.022c-0.209,0.022-0.412,0.098-0.622,0.24c-0.015,0.007-0.038,0.015-0.052,0.029
				c-0.008,0-0.015,0.008-0.022,0.016c-0.022,0-0.038,0.022-0.053,0.022c-0.015,0.007-0.03,0.022-0.045,0.037c0,0,0,0,0,0.008
				c-0.022,0-0.045,0.007-0.06,0.022c0,0-0.015,0-0.015,0.007c-0.015,0.008-0.015,0.008-0.022,0.008
				c-0.06,0.037-0.112,0.075-0.165,0.112c-0.008,0-0.008,0-0.008,0c-0.052,0.037-0.112,0.053-0.165,0.09c0,0-0.022,0.015-0.03,0.015
				c-0.008,0.016-0.03,0.016-0.045,0.03c-0.008,0-0.022,0.008-0.03,0.015c-0.015,0.016-0.03,0.016-0.052,0.038l0,0
				c-1.521,0.846-3.633,1.85-5.19,1.992c-0.135,0.015-0.255,0.015-0.375,0.015c-0.008,0-0.008,0-0.008,0
				c-1.176,0-1.917-0.606-1.625-2.366l0,0c0-0.016,0-0.022,0.015-0.045c0.248-1.304,0.36-2.584,0.36-3.843
				c0-12.718-12.111-22.761-19.369-29.577c-16.208-15.159-32.708-17.817-43.163-20.297c-10.666-2.509-20.994-4.891-32.978-5.558
				c-0.764,0.353-1.094,0.929-1.094,1.647c0,3.116,6.247,9.108,10.389,13.205c4.621,4.052,14.912,14.373,32.775,22.35
				c7.64,3.43,23.555,6.868,23.555,9.13c0,0.037-0.007,0.09-0.015,0.142l0,0c-0.03,0.008-0.06,0.016-0.09,0.016
				c-1.326,0.18-2.884,0.284-4.584,0.284l0,0c-0.015,0-0.022,0-0.03,0c-4.539,0-10.201-0.688-15.863-2.052
				c-0.022-0.008-0.045-0.008-0.06-0.008c-0.18-0.045-0.345-0.09-0.524-0.143c-0.015,0-0.015,0-0.03,0
				c-0.075-0.022-0.15-0.037-0.232-0.06c-0.038-0.008-0.06-0.015-0.097-0.03c-0.038-0.007-0.09-0.015-0.135-0.029
				c-0.045-0.016-0.098-0.03-0.15-0.038c-0.052-0.007-0.105-0.029-0.15-0.029l0,0c-16.343-4.255-53.162-23.054-65.355-40.49l0,0
				c-0.038-0.06-0.083-0.112-0.135-0.187c0-0.008,0-0.016,0-0.016c-0.015-0.007-0.022-0.029-0.045-0.052c0,0,0-0.008-0.015-0.016
				c-0.022-0.037-0.045-0.082-0.075-0.112c-0.008-0.022-0.03-0.037-0.03-0.067c-2.202-3.003-5.07-5.647-7.28-5.715
				c-0.03,0-0.067,0-0.083,0l0,0l0,0h-0.007c-0.532,0-1.034,0.157-1.468,0.51c0,0,0,0-0.015,0c0,0,0,0,0,0.007
				c-0.022,0.008-0.03,0.022-0.045,0.038l0,0c-0.734,0.606-0.944,1.288-0.944,1.978c0,0.898,0.352,1.857,0.352,2.838
				c0,0.637-0.15,1.311-0.667,1.97c-0.18,0.218-0.495,0.322-0.921,0.322l0,0c-0.022,0-0.053,0-0.083,0c-0.015,0-0.03,0-0.052-0.007
				c-2.292-0.113-7.25-2.989-11.512-6.958l0,0c-0.008,0-0.008-0.008-0.008-0.016c-0.022-0.015-0.045-0.029-0.067-0.052
				c-0.314-0.285-0.599-0.577-0.898-0.877c-0.015,0-0.03-0.015-0.045-0.037c0,0,0-0.008-0.015-0.008
				c-0.007-0.022-0.015-0.03-0.03-0.045c-0.015-0.008-0.015-0.022-0.03-0.03c0-0.007-0.015-0.015-0.022-0.029
				c-0.052-0.038-0.104-0.09-0.157-0.15l0,0c-0.015-0.015-0.037-0.022-0.037-0.037c-0.015-0.008-0.022-0.015-0.038-0.037
				c-0.12-0.135-0.27-0.27-0.39-0.412c-0.03-0.022-0.045-0.045-0.067-0.075c-0.038-0.029-0.075-0.075-0.112-0.098
				c-0.007-0.022-0.015-0.045-0.022-0.052l0,0c-0.007-0.016-0.015-0.03-0.022-0.038c-0.015-0.015-0.03-0.029-0.03-0.045l0,0
				c-1.124-1.67-2.112-3.4-4.696-3.407l0,0l0,0l0,0h-0.015c-0.921,0.007-2.03,0.239-3.438,0.733
				c-0.045,0.016-0.075,0.038-0.112,0.045l0,0h-0.008c-0.007,0-0.022,0-0.03,0.016c-0.015,0-0.038,0.007-0.053,0.022
				c-0.022,0-0.037,0.015-0.052,0.015l0,0c0,0-0.015,0-0.015,0.008c-0.194,0.097-0.396,0.135-0.614,0.135c-0.008,0-0.008,0-0.008,0
				h-0.007c-0.524,0-1.063-0.255-1.692-0.637c-0.022-0.008-0.045-0.015-0.06-0.03c-0.015,0-0.022-0.015-0.03-0.015
				c-0.007,0-0.015,0-0.015,0c-0.015-0.008-0.03-0.03-0.038-0.03c-1.139-0.704-2.509-1.782-4.262-2.554
				c-0.015-0.015-0.03-0.022-0.045-0.022s-0.015,0-0.038-0.008c-0.187-0.097-0.375-0.164-0.577-0.239l0,0
				c0-0.008-0.015-0.008-0.03-0.008c-0.584-0.21-1.146-0.277-1.73-0.277h-0.008l0,0l0,0h-0.007c-0.367,0-0.742,0.03-1.146,0.045
				c-0.105,0.022-0.21,0.022-0.307,0.038l0,0c-0.532,0.037-1.101,0.074-1.745,0.074h-0.007c-0.008,0-0.015,0-0.022,0
				c-0.869,0-1.865-0.074-3.078-0.299c-0.053-0.016-0.105-0.022-0.15-0.038l0,0c-1.101-0.231-2.067-0.329-2.944-0.329h-0.007l0,0
				l0,0l0,0c-10.141,0-6.187,14.238-5.31,20.903c0,0.008,0,0.008,0,0.022c0.052,0.345,0.09,0.727,0.104,1.116
				c-12.058-4.501-24.117-8.718-31.696-13.092c-13.841-8.014-22.724-19.684-28.371-30.993
				c-7.655-16.552-27.967-38.018-35.502-50.877c-3.468-7.311-5.767-14.119-7.991-20.702c3.872-1.094,7.033-2.337,9.242-3.296
				c8.336-3.64,11.767-8.336,24.057-8.336c10.538,0,23.316,8.156,34.026,11.115c10.718,2.943,33.098,2.247,42.977,3.43
				c9.916,1.199,17.825,6.936,21.84,10.554c6.067,5.438,5.879,10.418,14.665,13.249c14.455,4.674,20.552,26.326,39.201,40.228
				c32.483,24.192,53.387,23.81,71.175,39.074c17.159,14.732,32.723,40.505,35.606,57.858c0.045,0.606,0.397,1.58,0.397,2.225
				c0,0.209-0.038,0.382-0.135,0.502l0,0c0,0-0.008,0.007-0.015,0.015C857.878,249.379,857.578,249.506,857.271,249.514
				L857.271,249.514"/>
		</g>
		<path fill="#696969" d="M857.271,249.514c-0.008,0-0.022,0-0.022,0S857.264,249.514,857.271,249.514L857.271,249.514
			 M857.271,249.514c0.307-0.008,0.606-0.135,0.891-0.449C857.878,249.379,857.578,249.506,857.271,249.514 M858.178,249.05
			L858.178,249.05c0.097-0.12,0.135-0.293,0.135-0.502C858.312,248.757,858.275,248.93,858.178,249.05L858.178,249.05
			 M844.352,248.128c-0.008,0-0.008,0-0.008,0S844.344,248.128,844.352,248.128L844.352,248.128 M844.726,248.113
			c1.558-0.143,3.67-1.146,5.19-1.992C848.396,246.967,846.284,247.971,844.726,248.113 M854.747,247.671
			c-0.007,0-0.03-0.015-0.03-0.015S854.74,247.671,854.747,247.671 M854.643,247.581c-0.015-0.007-0.015-0.007-0.022-0.029
			C854.627,247.574,854.627,247.574,854.643,247.581 M854.605,247.536c-0.022-0.015-0.052-0.045-0.075-0.074l0,0l0,0
			C854.553,247.491,854.583,247.521,854.605,247.536 M849.917,246.121c0.022-0.022,0.038-0.022,0.052-0.038
			C849.954,246.099,849.939,246.099,849.917,246.121 M849.999,246.068c0.015-0.015,0.037-0.015,0.045-0.03
			C850.036,246.054,850.014,246.054,849.999,246.068 M850.074,246.023c0.052-0.037,0.112-0.053,0.165-0.09
			C850.186,245.971,850.126,245.986,850.074,246.023 M850.246,245.934c0.052-0.037,0.104-0.075,0.165-0.112
			C850.351,245.858,850.298,245.896,850.246,245.934 M850.433,245.813c0-0.007,0.015-0.007,0.015-0.007
			S850.433,245.807,850.433,245.813 M850.508,245.784c0-0.008,0-0.008,0-0.008S850.508,245.776,850.508,245.784 M842.719,245.762
			L842.719,245.762L842.719,245.762 M850.553,245.739c0.015,0,0.03-0.022,0.053-0.022
			C850.583,245.717,850.568,245.739,850.553,245.739 M850.628,245.701c0.015-0.015,0.038-0.022,0.052-0.029
			c0.21-0.143,0.412-0.218,0.622-0.24c-0.209,0.022-0.412,0.098-0.622,0.24C850.666,245.679,850.643,245.687,850.628,245.701
			 M843.093,241.874c0-12.718-12.111-22.761-19.369-29.577c-16.208-15.159-32.708-17.817-43.163-20.297
			c-10.666-2.509-20.994-4.891-32.978-5.558c-0.764,0.353-1.094,0.929-1.094,1.647c0-0.719,0.33-1.295,1.094-1.647
			c11.983,0.667,22.312,3.049,32.978,5.558c10.456,2.479,26.955,5.138,43.163,20.297
			C830.982,219.113,843.093,229.156,843.093,241.874 M808.521,233.216c-0.015,0-0.022,0-0.03,0
			C808.498,233.216,808.505,233.216,808.521,233.216L808.521,233.216 M808.521,233.216c1.7,0,3.258-0.104,4.584-0.284
			C811.778,233.111,810.221,233.216,808.521,233.216 M813.194,232.916L813.194,232.916c0.007-0.052,0.015-0.104,0.015-0.142
			C813.209,232.812,813.202,232.864,813.194,232.916L813.194,232.916 M792.627,231.164c-0.022-0.008-0.045-0.008-0.06-0.008
			C792.582,231.156,792.604,231.156,792.627,231.164 M792.043,231.014c-0.015,0-0.015,0-0.03,0
			C792.028,231.014,792.028,231.014,792.043,231.014 M791.781,230.954c-0.038-0.008-0.06-0.015-0.097-0.03
			C791.721,230.939,791.743,230.946,791.781,230.954 M791.549,230.895c-0.045-0.016-0.098-0.03-0.15-0.038
			C791.451,230.864,791.504,230.879,791.549,230.895 M791.249,230.827L791.249,230.827c-16.343-4.255-53.162-23.054-65.355-40.49
			l0,0l0,0C738.087,207.773,774.906,226.572,791.249,230.827L791.249,230.827 M668.582,196.973
			c-0.876-6.665-4.831-20.903,5.31-20.903C663.759,176.069,667.706,190.308,668.582,196.973 M714.517,191.835
			c-0.022,0-0.053,0-0.083,0C714.464,191.835,714.494,191.835,714.517,191.835L714.517,191.835 M714.517,191.835
			c0.427,0,0.741-0.104,0.921-0.322c0.517-0.659,0.667-1.333,0.667-1.97c0,0.637-0.15,1.311-0.667,1.97
			C715.258,191.73,714.943,191.835,714.517,191.835 M714.382,191.828c-2.292-0.113-7.25-2.989-11.512-6.958
			C707.132,188.839,712.09,191.715,714.382,191.828 M725.759,190.15c0-0.008,0-0.016,0-0.016S725.759,190.143,725.759,190.15
			 M725.714,190.083c0,0,0-0.008-0.015-0.016C725.714,190.075,725.714,190.083,725.714,190.083 M725.624,189.955
			c-0.008-0.022-0.03-0.037-0.03-0.067C725.594,189.918,725.616,189.933,725.624,189.955 M715.752,186.705
			c0-0.689,0.209-1.371,0.944-1.978l0,0l0,0C715.962,185.334,715.752,186.016,715.752,186.705 M702.87,184.87
			c-0.008,0-0.008-0.008-0.008-0.016C702.862,184.862,702.862,184.87,702.87,184.87 M702.795,184.803
			c-0.314-0.285-0.599-0.577-0.898-0.877C702.196,184.226,702.48,184.518,702.795,184.803 M716.741,184.689c0-0.007,0-0.007,0-0.007
			S716.741,184.683,716.741,184.689 M716.756,184.683c0.435-0.353,0.937-0.51,1.468-0.51
			C717.692,184.173,717.19,184.33,716.756,184.683 M718.314,184.173c-0.03,0-0.067,0-0.083,0l0,0
			C718.247,184.173,718.284,184.173,718.314,184.173 M701.852,183.889c0,0,0-0.008-0.015-0.008
			C701.852,183.881,701.852,183.889,701.852,183.889 M701.807,183.836c-0.015-0.008-0.015-0.022-0.03-0.03
			C701.792,183.813,701.792,183.828,701.807,183.836 M701.754,183.776c-0.052-0.038-0.104-0.09-0.157-0.15
			C701.649,183.687,701.702,183.738,701.754,183.776 M701.597,183.626c-0.015-0.015-0.037-0.022-0.037-0.037
			C701.56,183.604,701.582,183.611,701.597,183.626 M701.522,183.552c-0.12-0.135-0.27-0.27-0.39-0.412
			C701.252,183.282,701.402,183.417,701.522,183.552 M701.065,183.064c-0.038-0.029-0.075-0.075-0.112-0.098
			c-0.007-0.022-0.015-0.045-0.022-0.052c0.007,0.007,0.015,0.029,0.022,0.052C700.99,182.989,701.027,183.035,701.065,183.064
			 M700.93,182.915c-0.007-0.016-0.015-0.03-0.022-0.038C700.915,182.885,700.923,182.899,700.93,182.915 M700.878,182.832
			L700.878,182.832L700.878,182.832 M691.837,180.398h-0.007H691.837L691.837,180.398 M691.845,180.398
			c0.217,0,0.419-0.038,0.614-0.135C692.265,180.36,692.062,180.398,691.845,180.398 M692.474,180.256L692.474,180.256
			c0.015,0,0.03-0.015,0.052-0.015C692.504,180.241,692.489,180.256,692.474,180.256L692.474,180.256 M692.579,180.219
			c0.007-0.016,0.022-0.016,0.03-0.016C692.602,180.203,692.586,180.203,692.579,180.219 M692.617,180.203L692.617,180.203
			L692.617,180.203 M692.729,180.158c1.408-0.494,2.517-0.727,3.438-0.733C695.246,179.432,694.137,179.664,692.729,180.158
			 M690.138,179.762c-0.022-0.008-0.045-0.015-0.06-0.03C690.093,179.747,690.115,179.754,690.138,179.762 M690.047,179.717
			c-0.007,0-0.015,0-0.015,0S690.04,179.717,690.047,179.717 M689.995,179.687c-1.139-0.704-2.509-1.782-4.262-2.554
			C687.486,177.904,688.856,178.982,689.995,179.687 M696.182,179.425L696.182,179.425L696.182,179.425L696.182,179.425
			 M685.688,177.11c-0.015,0-0.015,0-0.038-0.008C685.673,177.11,685.673,177.11,685.688,177.11 M685.074,176.863L685.074,176.863
			c0-0.008-0.015-0.008-0.03-0.008C685.06,176.855,685.074,176.855,685.074,176.863L685.074,176.863 M680.094,176.735
			c-0.008,0-0.015,0-0.022,0C680.079,176.735,680.086,176.735,680.094,176.735L680.094,176.735 M680.101,176.735
			c0.644,0,1.213-0.037,1.745-0.074l0,0l0,0C681.314,176.698,680.745,176.735,680.101,176.735 M682.153,176.623
			c0.404-0.015,0.779-0.045,1.146-0.045C682.932,176.578,682.558,176.608,682.153,176.623 M683.314,176.578h-0.008l0,0H683.314
			 M676.993,176.437c-0.053-0.016-0.105-0.022-0.15-0.038l0,0l0,0C676.888,176.414,676.94,176.421,676.993,176.437 M673.899,176.069
			h-0.007l0,0H673.899"/>
		<g>
			<path fill="#4B3E36" d="M818.976,270.11c4.943-2.015,9.37,2.12,11.759,5.086c2.426,2.98,7.624,8.628,16.829,10.815
				c9.19,2.217,18.388,0.531,21.413-2.263c2.517-2.299,3.513,1.745,2.966,2.337c-6.404,5.572-15.189,7.108-21.354,7.909
				c-4.292,0.442-6.374,0.39-8.92,0.008c-3.909-0.555-7.684-1.85-9.961-0.239c-0.659,0.501-0.794,0.809-1.678,2.015
				c-1.184,0.307-1.917,0.262-7.325-2.367c-2.996-1.573-5.22-0.749-7.235-0.12c-2.576,1.176-4.673,4.082-4.831,6.831
				c0.787,2.966-0.599,5.393,4.247,10.358c2.547,2.599,4.127,5.311,6.696,8.65c2.591,3.348,4.426,5.558,5.857,7.272
				c1.431,1.693,2.067,4.037-0.434,5.229c-2.592,1.228-10.006,2.119-11.16,1.086c-0.674-0.6-0.172-1.079-0.285-2.764
				c-0.075-1.026-0.524-2.876-1.828-4.682c-1.378-1.933-3.4-4.389-5.715-4.464c-2.524-0.09-3.632-0.539-4.561-1.386
				c-1.326-0.382-2.996-1.056-3.835,0.562c-0.307,1.985-1.962,3.626-2.793,4.606c-0.892,1.034-1.243,4.164-0.217,6.884
				c0.547,1.654-1.251,3.654-4.112,3.909c-3.363,0.232-7.422,0.779-8.741-0.802c-1.648-2.052,3.49-8.485,3.326-10.336
				c0.165-7.085,4.299-11.594,1.333-12.065c-2.951-0.465-4.674,0-8.374-1.063c-3.73-1.049-5.348,0.816-3.49,4.119
				c1.79,3.266-1.258,8.021,0.524,11.077c0.352,1.812,4.389,5.101,3.475,7.123c-1.146,2.644-7.856,1.812-9.437,1.812
				c-1.303,0-3.416-0.075-4.209-0.689c-1.46-1.146,0.929-4.269,0.689-6.007c-0.255-1.752-0.921-3.048-1.857-5.28
				c-0.794-1.887-1.543-2.928-3.311-5.287c-2.037-2.704-7.28-3.91-12.276-0.427c-4.981,3.445-3.947,1.827-5.745,2.815
				c-1.79,0.981-1.962,2.314-3.865,3.198c-1.94,0.884-2.876,0.802-3.168,2.547c-0.277,1.729-0.09,5.513-1.768,7.115
				c-1.73,1.61-6.771,1.775-9.819-0.704c-2.988-2.486-6.98-4.494-5.213-7.078c0.951-1.37,3.992-3.692,7.07-6.396
				c2.711-2.411,5.962-5.122,6.479-5.64c1.101-1.146,4.366-4.321,5.041-6.681c0.674-2.366,0.921-4.179,0.539-7.272
				c-0.202-1.843-0.314-3.895-0.809-5.362c-0.494-1.371-1.521-2.6-3.625-3.423c-2.082-0.854-4.299-1.888-10.493-0.487
				c-4.846,1.094-7.752,2.284-10.193,3.573c-2.606,1.37-6.082,3.977-6.726,4.246c-4.824-0.486-1.738-3.243,1.55-5.699
				c3.363-2.487,10.276-5.296,16.14-6.629c3.805-0.876,6.276-1.011,8.98-1.978c2.007-0.719,3.288-1.086,4.756-2.217
				c1.101-0.839,2.104-2.194,3.108-4.366c3.46-7.393,10.823-10.897,16.904-12.905c11.055-3.325,20.237,5.603,25.705,3.071
				c5.482-2.547,15.159-10.95,22.409-5.431C810.333,264.104,814.175,269.743,818.976,270.11"/>
			<path fill="#4B3E36" d="M713.161,225.554c-1.034-2.411-5.475-8.8-17.047-15.519c-16.507-9.557-45.275-17.017-59.124-25.016
				c-13.841-8.014-22.724-19.684-28.371-30.993c-7.655-16.552-27.967-38.018-35.502-50.877
				c-7.707-16.298-9.662-30.072-17.923-44.399c-2.928-7.25-5.13-11.527-10.605-18.245c-8.291-9.654-24.454-10.546-35.172-8.517
				c-13.863,3.063-30.236,2.929-39.883-3.123c-15.736-6.089-17.309-11.714-34.775-12.567c-17.444-0.854-29.315,9.707-34.895,14.043
				c-7.729,6.067-15.684,22.701-49.103,19.474c-33.449-3.235-34.528-8.808-47.23-13.167c-8.269-2.816-10.351-4.659-27.36-5.752
				c-22.739-1.506-44.781,12.463-49.2,15.309c-9.931,5.527-22.956,15.332-34.67,21.766c-13.983,8.097-20.379,15.339-36.213,16.298
				c-10.261,0.943-26.499,0.764-42.265-4.786c-15.766-5.527-37.419-22.874-44.317-26.858c-6.733-3.917-19.264-7.152-25.6-6.538
				c-7.602,0.733-12.583,1.768-17.781,3.819c-6.097,2.396-12.538,6.538-8.958,6.104c3.116-0.36,12.051-2.779,15.264-2.15
				c0.359,1.371-13.976,4.255-17.736,9.183c0.112,1.888,2.921-0.329,7.804,0.263c4.898,0.562-8.164,5.991-7.085,7.654
				c1.079,1.655,7.303-2.502,11.797-3.453c3.513-0.719,3.984-0.719,2.906,0.727c-1.251,1.671-5.685,3.58-8.71,6.719
				c-4.494,4.636-6.426,10.111-4.778,9.512c2.771-0.981,2.913-2.225,6.771-5.513c3.97-3.362,7.909-6.493,11.983-8.726
				c4.007-2.164,9.625-5.444,17.249-5.07c12.366,0.592,21.406,1.992,32.303,8.771c12.658,7.872,39.471,20.814,66.015,24.724
				c22.739,3.348,24.289,10.261,23.023,26.454c-1.73,22.109-7.879,26.349-8.314,48.931c-0.202,10.567,6.314,19.99,9.347,30.73
				c3.431,12.223,2.974,25.555-6.142,33.329c-17.106,14.583-9.489,5.505-28.371,25.848c-23.862,25.742-23.607,40.302-20.994,46.908
				c2.427,6.089,21.81,15.188,31.209,17.361c9.4,2.201,17.781-1.012,21.039-7.939c3.258-6.95-7.362-9.527-3.917-20.319
				c5.782-20.096,31.741-29.023,43.396-28.701c11.684,0.314,13.242-3.513,18.47-8.516c5.198-4.958,9.594-12.853,15.017-12.179
				c5.43,0.674,8.853,23.076,7.153,28.963c-1.723,5.857-7.31,20.065-10.066,31.637c-1.82,7.617,3.041,15.279,11.699,17.631
				c8.628,2.337,25.705,0.869,32.618-0.232c4.306-0.704,9.235-8.777,3.61-13.78c-8.636-7.685-10.298-18.32-7.258-26.866
				c3.056-8.561,13.662-33.449,15.594-36.49c2.21-10.163-3.266-10.134,10.254-14.837c9.085-1.918,36.101-17.616,41.321-15.137
				c0.225,5.303,1.071,14.515,13.452,20.125c10.568,5.265,17.234,23.203,31.157,37.269c1.558,2.892-7.872,12.516-15.219,18.29
				c-4.486,3.363-7.235,10.763,0.188,14.358c8.905,5.467,14.777,12.822,24.431,14.5c6.928,1.033,11.003-0.39,14.253-6.486
				c2.726-5.086-3.086-11.332,0.375-18.927c3.445-7.587,5.415-9.189,9.789-21.646c4.366-12.447-10.726-28.304-9.789-34.033
				c0.502-3.131,2.352-4.187,4.913-2.367c3.49,2.502,21.728,30.761,32.311,45.95c3.445,6.082,2.457,14.92,6.127,20.245
				c-8.501,6.052-6.696,17.593,1.003,20.656c7.685,3.078,23.323,1.386,31.172,1.386c7.842,0,12.613-3.168,13.077-10.553
				c0.479-7.355-5.348-10.966-12.261-15.385c-6.576-14.845-1.595-22.881-4.366-32.4c-2.082-7.062-6.921-16.47-8.936-22.199
				c-3.333-10.891-7.467-40.67-9.272-45.463c-3.16-11.646-6.823-9.977-4.307-23.66c1.985-7.4,14.073,0.801,15.489-9.393
				c1.378-10.141,0.943-11.159,2.936-16.867c2.008-5.722,1.476-12.732,5.086-9.991c9.452,6.704,14.717-0.486,19.121,3.131
				c4.838,4.015,5.116,4.539,7.153,6.868c8.591,9.872,8.621,5.048,7.767,0.959c-0.27-1.296-0.592-3.019-0.629-4.187
				c-0.135-3.7,2.591-5.445,7.617,0.396c6.187,7.168,8.71,10.246,19.414,23.233c12.95,15.751,25.532,30.558,37.149,39.471
				c12.666,9.767,30.865,16.763,39,14.65c3.939-1.019-11.242-6.321-15.923-9.003c-8.164-4.703-19.174-12.905-25.87-23.601
				c-6.381-10.171-6.809-10.718-11.152-18.507c-3.453-6.164,0.097-6.007,4.209-1.76c6.562,8.261,17.369,14.021,33.892,21.997
				c16.507,7.991,39.748,11.901,52.683,15.271c12.246,3.168,27.825,10.104,35.756,17.639c3.19,3.078,1.019-4.157,0.929-5.221
				c-0.27-2.554,3.295-0.771,6.066,1.476C711.169,229.936,714.194,227.988,713.161,225.554"/>
		</g>
	</g>
</g>
<g id="opt1">
</g>
</svg>
